<svg width="110" height="23" viewBox="0 0 110 23" fill="none" xmlns="http://www.w3.org/2000/svg">
<path d="M7.24508 7.11222C7.92124 7.31748 8.50081 7.58312 8.99586 7.9212L8.13858 9.6599C7.65561 9.35804 7.13641 9.12863 6.56892 8.95959C6.00143 8.79055 5.48223 8.70603 4.99926 8.70603C4.50421 8.70603 4.11783 8.79055 3.84012 8.97167C3.56242 9.15278 3.41752 9.41841 3.41752 9.78064C3.41752 10.1429 3.58656 10.4206 3.91257 10.6138C4.25065 10.807 4.80607 11.0243 5.57883 11.2779C6.31536 11.4952 6.93115 11.7125 7.41412 11.9299C7.89709 12.1472 8.30762 12.4732 8.65778 12.9079C9.00793 13.3426 9.17697 13.9221 9.17697 14.6345C9.17697 15.6971 8.77852 16.506 7.98161 17.0615C7.18471 17.6169 6.19462 17.8825 4.99926 17.8825C4.17821 17.8825 3.3813 17.7497 2.59647 17.4841C1.81164 17.2184 1.15963 16.8441 0.628357 16.3732L1.46148 14.6949C1.93238 15.1054 2.49988 15.4314 3.16396 15.6729C3.84012 15.9144 4.48006 16.0472 5.10793 16.0472C5.6392 16.0472 6.07387 15.9506 6.39988 15.7574C6.72589 15.5642 6.89493 15.2745 6.89493 14.876C6.89493 14.5741 6.79833 14.3327 6.59307 14.1274C6.3878 13.9342 6.14632 13.7772 5.86861 13.6565C5.57883 13.5358 5.1683 13.4029 4.62495 13.2339C3.9005 13.0166 3.30885 12.7992 2.86211 12.594C2.40328 12.3887 2.0169 12.0748 1.6909 11.6522C1.36489 11.2416 1.19585 10.6862 1.19585 9.98591C1.19585 8.94752 1.58223 8.16269 2.34291 7.61934C3.10359 7.076 4.06954 6.81036 5.20452 6.81036C5.89276 6.81036 6.56892 6.90696 7.24508 7.11222Z" fill="#0746A6"/>
<path d="M19.561 8.28343C20.4183 9.24937 20.8409 10.6138 20.8409 12.3766C20.8409 12.5577 20.8288 12.8475 20.8046 13.258H12.57C12.7632 14.1032 13.1616 14.7673 13.7532 15.2503C14.357 15.7333 15.0814 15.9748 15.9387 15.9748C16.5303 15.9748 17.0858 15.8661 17.617 15.6488C18.1483 15.4314 18.6071 15.1175 19.0056 14.707L20.2492 16.0351C19.7059 16.6268 19.0539 17.0735 18.2811 17.3875C17.5204 17.7014 16.6752 17.8704 15.7455 17.8704C14.6347 17.8704 13.6687 17.641 12.8235 17.1701C11.9904 16.7113 11.3384 16.0593 10.8675 15.2262C10.4087 14.393 10.1672 13.4392 10.1672 12.3645C10.1672 11.2899 10.3966 10.324 10.8675 9.49086C11.3263 8.65773 11.9783 8.00572 12.8235 7.52275C13.6567 7.05185 14.6105 6.81036 15.6851 6.81036C17.4238 6.82244 18.7037 7.31748 19.561 8.28343ZM17.8706 9.46671C17.3272 8.95959 16.6028 8.7181 15.7214 8.7181C14.8641 8.7181 14.1517 8.97167 13.5842 9.46671C13.0167 9.97383 12.6666 10.6621 12.5217 11.5314H18.7399C18.7158 10.6621 18.4139 9.97383 17.8706 9.46671Z" fill="#0746A6"/>
<path d="M46.5104 17.7979H44.168V15.9385C43.7696 16.5784 43.2504 17.0614 42.6104 17.3994C41.9584 17.7375 41.2098 17.8945 40.3525 17.8945C39.3141 17.8945 38.4086 17.6651 37.6237 17.1942C36.8389 16.7233 36.2352 16.0713 35.8005 15.2261C35.3658 14.3809 35.1485 13.4149 35.1485 12.3162C35.1485 11.2415 35.3658 10.2877 35.8005 9.45454C36.2352 8.62142 36.851 7.9694 37.6237 7.51058C38.4086 7.05176 39.3021 6.81027 40.3163 6.81027C41.1857 6.81027 41.9463 6.97931 42.5983 7.32947C43.2383 7.66755 43.7696 8.16259 44.1922 8.80253V2.62048L46.5346 5.10779V13.2217V17.7979H46.5104ZM42.9002 14.9484C43.516 14.2843 43.8299 13.4391 43.8299 12.4007C43.8299 11.3502 43.516 10.4929 42.9002 9.82885C42.2844 9.16476 41.4754 8.82668 40.4974 8.82668C39.5194 8.82668 38.7225 9.16476 38.0946 9.82885C37.4668 10.4929 37.1528 11.3502 37.1408 12.4007C37.1528 13.4391 37.4668 14.2963 38.0946 14.9484C38.7225 15.6124 39.5194 15.9385 40.4974 15.9385C41.4754 15.9385 42.2723 15.6124 42.9002 14.9484Z" fill="#0746A6"/>
<path d="M32.2509 7.94523C32.9754 8.69383 33.3255 9.72015 33.3255 11.0242V17.7979H30.971V11.6883C30.971 10.8672 30.7416 10.2273 30.2707 9.7443C29.8119 9.2734 29.172 9.03191 28.3509 9.03191C27.4816 9.04399 26.7692 9.3217 26.2138 9.86504C25.6583 10.4084 25.3444 11.1208 25.2599 11.9901V17.7858L22.9054 15.3106V11.0604C22.9054 10.1669 24.7165 6.76194 28.846 6.6412C30.1258 6.61705 31.5385 7.19662 32.2509 7.94523Z" fill="#0746A6"/>
<path d="M57.8679 8.05793V9.85488H54.0562V12.1147H57.759V13.9117H54.0562V17.5872H52.1775V8.05793H57.8679ZM67.2414 17.5872H65.213L63.2935 14.2792H61.8641V17.5872H59.9855V8.05793H63.7972C64.6776 8.05793 65.4263 8.36649 66.0434 8.98363C66.6606 9.60077 66.9691 10.345 66.9691 11.2162C66.9691 11.8061 66.8012 12.3552 66.4655 12.8634C66.1297 13.3626 65.685 13.7392 65.1313 13.9933L67.2414 17.5872ZM63.7972 9.81404H61.8641V12.632H63.7972C64.1512 12.632 64.4552 12.4959 64.7093 12.2236C64.9634 11.9423 65.0905 11.6065 65.0905 11.2162C65.0905 10.826 64.9634 10.4947 64.7093 10.2224C64.4552 9.95018 64.1512 9.81404 63.7972 9.81404ZM70.975 13.653V15.7903H74.9909V17.5872H69.0963V8.05793H74.9228V9.85488H70.975V11.8833H74.5825V13.653H70.975ZM77.0638 17.5872V8.05793H78.9425V17.5872H77.0638ZM86.0293 12.4686H90.8076V13.2038C90.8076 14.5651 90.3719 15.6678 89.5007 16.5118C88.6294 17.3558 87.5041 17.7778 86.1246 17.7778C84.6543 17.7778 83.4337 17.3014 82.4626 16.3484C81.5006 15.3864 81.0196 14.2157 81.0196 12.8362C81.0196 11.4476 81.496 10.2724 82.449 9.31035C83.411 8.34834 84.5999 7.86734 86.0157 7.86734C86.896 7.86734 87.7037 8.067 88.4388 8.46633C89.174 8.86565 89.7503 9.40564 90.1677 10.0863L88.5614 11.012C88.3345 10.6218 87.9896 10.3041 87.5267 10.0591C87.0639 9.81404 86.5557 9.69152 86.0021 9.69152C85.0854 9.69152 84.3367 9.99102 83.7559 10.59C83.175 11.1708 82.8846 11.9196 82.8846 12.8362C82.8846 13.7347 83.1796 14.4789 83.7695 15.0688C84.3594 15.6496 85.149 15.94 86.1382 15.94C86.8552 15.94 87.4541 15.7812 87.9351 15.4636C88.4161 15.1459 88.7429 14.7012 88.9153 14.1295H86.0293V12.4686ZM98.3106 11.8424V8.05793H100.176V17.5872H98.3106V13.6394H94.7712V17.5872H92.8925V8.05793H94.7712V11.8424H98.3106ZM101.987 8.05793H108.998V9.85488H106.425V17.5872H104.546V9.85488H101.987V8.05793Z" fill="#0746A6"/>
</svg>
