<svg width="16" height="13" viewBox="0 0 16 13" fill="none" xmlns="http://www.w3.org/2000/svg">
<path d="M1 4.50474C0.613401 4.50474 0.3 4.81814 0.3 5.20474C0.3 5.59134 0.613401 5.90474 1 5.90474V4.50474ZM14.75 5.90474C15.1366 5.90474 15.45 5.59134 15.45 5.20474C15.45 4.81814 15.1366 4.50474 14.75 4.50474V5.90474ZM2.25 2.15474H13.5V0.754742H2.25V2.15474ZM13.5 2.15474C13.8038 2.15474 14.05 2.40099 14.05 2.70474H15.45C15.45 1.62779 14.577 0.754742 13.5 0.754742V2.15474ZM14.05 2.70474V10.2047H15.45V2.70474H14.05ZM14.05 10.2047C14.05 10.5085 13.8038 10.7547 13.5 10.7547V12.1547C14.577 12.1547 15.45 11.2817 15.45 10.2047H14.05ZM13.5 10.7547H2.25V12.1547H13.5V10.7547ZM2.25 10.7547C1.94624 10.7547 1.7 10.5085 1.7 10.2047H0.3C0.3 11.2817 1.17304 12.1547 2.25 12.1547V10.7547ZM1.7 10.2047V2.70474H0.3V10.2047H1.7ZM1.7 2.70474C1.7 2.40099 1.94624 2.15474 2.25 2.15474V0.754742C1.17304 0.754742 0.3 1.62779 0.3 2.70474H1.7ZM1 5.90474H14.75V4.50474H1V5.90474Z" fill="#78797A"/>
</svg>
