<svg width="12" height="15" viewBox="0 0 12 15" fill="none" xmlns="http://www.w3.org/2000/svg">
<path d="M10.5 3.05176e-05H3C2.20435 3.05176e-05 1.44129 0.316101 0.87868 0.87871C0.31607 1.44132 0 2.20438 0 3.00003V12C0 12.7957 0.31607 13.5587 0.87868 14.1214C1.44129 14.684 2.20435 15 3 15H10.5C10.8978 15 11.2794 14.842 11.5607 14.5607C11.842 14.2794 12 13.8979 12 13.5V1.50003C12 1.10221 11.842 0.720675 11.5607 0.43937C11.2794 0.158066 10.8978 3.05176e-05 10.5 3.05176e-05ZM1.5 3.00003C1.5 2.60221 1.65804 2.22067 1.93934 1.93937C2.22064 1.65807 2.60218 1.50003 3 1.50003H10.5V9.00003H3C2.47128 9.00225 1.95299 9.14737 1.5 9.42003V3.00003ZM3 13.5C2.60218 13.5 2.22064 13.342 1.93934 13.0607C1.65804 12.7794 1.5 12.3979 1.5 12C1.5 11.6022 1.65804 11.2207 1.93934 10.9394C2.22064 10.6581 2.60218 10.5 3 10.5H10.5V13.5H3ZM4.5 4.50003H7.5C7.69891 4.50003 7.88968 4.42101 8.03033 4.28036C8.17098 4.13971 8.25 3.94894 8.25 3.75003C8.25 3.55112 8.17098 3.36035 8.03033 3.2197C7.88968 3.07905 7.69891 3.00003 7.5 3.00003H4.5C4.30109 3.00003 4.11032 3.07905 3.96967 3.2197C3.82902 3.36035 3.75 3.55112 3.75 3.75003C3.75 3.94894 3.82902 4.13971 3.96967 4.28036C4.11032 4.42101 4.30109 4.50003 4.5 4.50003Z" fill="#78797A"/>
</svg>
