<svg width="14" height="15" viewBox="0 0 14 15" fill="none" xmlns="http://www.w3.org/2000/svg">
<path d="M3.11111 14.4547H10.8889C12.6 14.4547 14 13.073 14 11.3842V6.39462C14 5.3967 13.5333 4.55231 12.7556 3.93821L8.86667 1.02121C7.77778 0.253582 6.22222 0.253582 5.13333 1.09798L1.24444 3.93821C0.466667 4.55231 0 5.3967 0 6.39462V11.3842C0 13.073 1.4 14.4547 3.11111 14.4547ZM1.55556 6.39462C1.55556 5.93405 1.78889 5.47347 2.17778 5.16642L6.06667 2.24942C6.37778 2.01913 6.68889 1.94237 7 1.94237C7.31111 1.94237 7.62222 2.01913 7.93333 2.24942L11.8222 5.16642C12.2111 5.47347 12.4444 5.93405 12.4444 6.39462V11.3842C12.4444 12.2286 11.7444 12.9195 10.8889 12.9195H3.11111C2.25556 12.9195 1.55556 12.2286 1.55556 11.3842V6.39462Z" fill="#78797A"/>
</svg>
