<svg width="18" height="16" viewBox="0 0 18 16" fill="none" xmlns="http://www.w3.org/2000/svg">
<path d="M17.2726 9.82995C17.2696 9.78557 17.2625 9.74157 17.2513 9.69852L15.5124 5.06798C15.8288 4.86329 16.0891 4.5827 16.2695 4.25176C16.4498 3.92081 16.5445 3.55002 16.545 3.17313C16.545 2.97302 16.4656 2.7811 16.3241 2.6396C16.1826 2.4981 15.9906 2.41861 15.7905 2.41861C15.5904 2.41861 15.3985 2.4981 15.257 2.6396C15.1155 2.7811 15.036 2.97302 15.036 3.17313C15.0359 3.34127 14.9797 3.50458 14.8763 3.63714C14.7729 3.76971 14.6282 3.86395 14.4651 3.90491C14.302 3.94587 14.1299 3.93121 13.9761 3.86324C13.8223 3.79528 13.6956 3.67791 13.6161 3.52976C13.4225 3.18608 13.1394 2.90129 12.7969 2.70564C12.4544 2.50999 12.0652 2.4108 11.6709 2.41861H9.75439V1.66409C9.75439 1.46398 9.6749 1.27207 9.5334 1.13057C9.3919 0.98907 9.19999 0.909576 8.99988 0.909576C8.79977 0.909576 8.60785 0.98907 8.46635 1.13057C8.32485 1.27207 8.24536 1.46398 8.24536 1.66409V2.41861H6.32889C5.93451 2.4108 5.54538 2.50999 5.20286 2.70564C4.86035 2.90129 4.57724 3.18608 4.38362 3.52976C4.30412 3.67791 4.17742 3.79528 4.02363 3.86324C3.86983 3.93121 3.69775 3.94587 3.53467 3.90491C3.37159 3.86395 3.22686 3.76971 3.12344 3.63714C3.02001 3.50458 2.96381 3.34127 2.96375 3.17313C2.96375 2.97302 2.88425 2.7811 2.74275 2.6396C2.60125 2.4981 2.40934 2.41861 2.20923 2.41861C2.00912 2.41861 1.8172 2.4981 1.6757 2.6396C1.53421 2.7811 1.45471 2.97302 1.45471 3.17313C1.45521 3.55002 1.54994 3.92081 1.7303 4.25176C1.91066 4.5827 2.17091 4.86329 2.48738 5.06798L0.748484 9.69852C0.737322 9.74157 0.730201 9.78557 0.727215 9.82995C0.713964 9.87359 0.704916 9.91841 0.700195 9.96378C0.700195 9.97078 0.702225 9.97722 0.70227 9.98422C0.702497 9.99417 0.704534 10.0033 0.705213 10.0132C0.716961 10.8046 1.03957 11.5596 1.60335 12.115C2.16713 12.6705 2.92681 12.9819 3.71826 12.9819C4.50971 12.9819 5.26939 12.6705 5.83317 12.115C6.39695 11.5596 6.71956 10.8046 6.73131 10.0132C6.73195 10.0033 6.73403 9.99417 6.73425 9.98422C6.7343 9.97722 6.73633 9.97078 6.73633 9.96378C6.73162 9.91841 6.72258 9.87359 6.70934 9.82995C6.70635 9.78557 6.69923 9.74157 6.68807 9.69852L4.94711 5.06259C5.26685 4.85855 5.52996 4.57717 5.71213 4.24448C5.77797 4.14208 5.86967 4.05886 5.97796 4.00323C6.08625 3.9476 6.2073 3.92152 6.32889 3.92764H8.24536V14.4909H5.98181C5.7817 14.4909 5.58979 14.5704 5.44829 14.7119C5.30679 14.8534 5.22729 15.0453 5.22729 15.2454C5.22729 15.4455 5.30679 15.6374 5.44829 15.7789C5.58979 15.9204 5.7817 15.9999 5.98181 15.9999H12.0179C12.2181 15.9999 12.41 15.9204 12.5515 15.7789C12.693 15.6374 12.7725 15.4455 12.7725 15.2454C12.7725 15.0453 12.693 14.8534 12.5515 14.7119C12.41 14.5704 12.2181 14.4909 12.0179 14.4909H9.75439V3.92764H11.6709C11.7925 3.92153 11.9135 3.9476 12.0218 4.00323C12.1301 4.05886 12.2218 4.14208 12.2876 4.24448C12.4698 4.57717 12.7329 4.85855 13.0526 5.06259L11.3117 9.69852C11.3006 9.74157 11.2934 9.78557 11.2904 9.82995C11.2772 9.87359 11.2681 9.91841 11.2634 9.96378C11.2634 9.97078 11.2655 9.97722 11.2655 9.98422C11.2657 9.99417 11.2678 10.0033 11.2684 10.0132C11.2802 10.8046 11.6028 11.5596 12.1666 12.115C12.7304 12.6705 13.49 12.9819 14.2815 12.9819C15.0729 12.9819 15.8326 12.6705 16.3964 12.115C16.9602 11.5596 17.2828 10.8046 17.2945 10.0132C17.2952 10.0033 17.2973 9.99417 17.2975 9.98422C17.2975 9.97722 17.2996 9.97078 17.2996 9.96378C17.2948 9.91841 17.2858 9.87359 17.2726 9.82995ZM3.71826 6.08219L5.01804 10.7183H2.41185L3.71826 6.08219ZM5.01804 10.7183C4.88488 10.9455 4.6952 11.1344 4.46744 11.2666C4.23969 11.3988 3.9816 11.4699 3.71826 11.4728C3.45345 11.4727 3.19333 11.4029 2.96402 11.2705C2.7347 11.1381 2.54427 10.9476 2.41185 10.7183H5.01804ZM14.2815 6.08219L15.5813 10.7183H12.9751L14.2815 6.08219ZM14.2815 11.4728C14.0167 11.4727 13.7566 11.4029 13.5272 11.2705C13.2979 11.1381 13.1075 10.9476 12.9751 10.7183H15.5813C15.4481 10.9455 15.2584 11.1344 15.0307 11.2666C14.8029 11.3988 14.5448 11.4699 14.2815 11.4728Z" fill="#78797A"/>
</svg>
