<svg width="13" height="13" viewBox="0 0 13 13" fill="none" xmlns="http://www.w3.org/2000/svg">
<path d="M8.91372 6.96097C9.55412 6.45988 10.0216 5.77275 10.251 4.99516C10.4804 4.21757 10.4605 3.3882 10.1939 2.62242C9.92727 1.85665 9.42731 1.19255 8.76353 0.72252C8.09975 0.252492 7.30516 -9.15527e-05 6.49031 -9.15527e-05C5.67546 -9.15527e-05 4.88088 0.252492 4.2171 0.72252C3.55331 1.19255 3.05335 1.85665 2.78675 2.62242C2.52016 3.3882 2.50019 4.21757 2.72963 4.99516C2.95907 5.77275 3.4265 6.45988 4.0669 6.96097C2.96956 7.39819 2.01209 8.12337 1.29657 9.0592C0.581049 9.99503 0.134297 11.1064 0.00394006 12.2749C-0.00549582 12.3602 0.00205655 12.4465 0.0261658 12.5289C0.050275 12.6114 0.090469 12.6882 0.144453 12.7552C0.253478 12.8904 0.412055 12.977 0.585297 12.996C0.758539 13.0149 0.932255 12.9647 1.06823 12.8562C1.20421 12.7478 1.2913 12.5901 1.31036 12.4178C1.45379 11.1479 2.06265 9.97511 3.02061 9.12344C3.97856 8.27176 5.21845 7.80095 6.50338 7.80095C7.78831 7.80095 9.02819 8.27176 9.98615 9.12344C10.9441 9.97511 11.553 11.1479 11.6964 12.4178C11.7142 12.5774 11.7907 12.7249 11.9114 12.8316C12.032 12.9384 12.1881 12.997 12.3496 12.996H12.4215C12.5927 12.9764 12.7492 12.8903 12.8569 12.7564C12.9645 12.6226 13.0146 12.4518 12.9963 12.2814C12.8653 11.1096 12.4161 9.99536 11.6969 9.05809C10.9777 8.12082 10.0156 7.39588 8.91372 6.96097ZM6.49031 6.49973C5.97354 6.49973 5.46838 6.34733 5.0387 6.06181C4.60902 5.77628 4.27412 5.37045 4.07636 4.89564C3.8786 4.42082 3.82686 3.89835 3.92768 3.39429C4.02849 2.89023 4.27734 2.42722 4.64276 2.06381C5.00817 1.70041 5.47373 1.45292 5.98057 1.35266C6.48741 1.2524 7.01277 1.30385 7.4902 1.50053C7.96764 1.6972 8.3757 2.03026 8.66281 2.45758C8.94991 2.8849 9.10315 3.3873 9.10315 3.90123C9.10315 4.5904 8.82787 5.25134 8.33787 5.73865C7.84787 6.22596 7.18328 6.49973 6.49031 6.49973Z" fill="#78797A"/>
</svg>
