<svg width="14" height="17" viewBox="0 0 14 17" fill="none" xmlns="http://www.w3.org/2000/svg">
<path d="M12.7775 11.6663C11.9133 10.6086 11.3032 10.0701 11.3032 7.15399C11.3032 4.48356 9.93951 3.53216 8.81716 3.0701C8.66807 3.00885 8.52774 2.86817 8.4823 2.71505C8.28543 2.045 7.73351 1.45471 6.99985 1.45471C6.2662 1.45471 5.71394 2.04534 5.51908 2.71572C5.47365 2.87053 5.33331 3.00885 5.18423 3.0701C4.06052 3.53284 2.69822 4.48087 2.69822 7.15399C2.69653 10.0701 2.08639 10.6086 1.22216 11.6663C0.864083 12.1045 1.17774 12.7624 1.80403 12.7624H12.199C12.822 12.7624 13.1336 12.1025 12.7775 11.6663Z" stroke="#78797A" stroke-width="1.5" stroke-linecap="round" stroke-linejoin="round"/>
<path d="M9.15376 12.7624V13.3009C9.15376 13.8721 8.92684 14.4199 8.52291 14.8239C8.11899 15.2278 7.57115 15.4547 6.99992 15.4547C6.42868 15.4547 5.88084 15.2278 5.47692 14.8239C5.07299 14.4199 4.84607 13.8721 4.84607 13.3009V12.7624" stroke="#78797A" stroke-width="1.5" stroke-linecap="round" stroke-linejoin="round"/>
</svg>
