<svg width="16" height="15" viewBox="0 0 16 15" fill="none" xmlns="http://www.w3.org/2000/svg">
<path d="M12.1996 3.94559C12.1996 3.80697 12.1585 3.67147 12.0815 3.55622C12.0045 3.44096 11.895 3.35113 11.7669 3.29809C11.6389 3.24504 11.498 3.23116 11.362 3.25821C11.2261 3.28525 11.1012 3.352 11.0032 3.45001C10.9052 3.54803 10.8384 3.67291 10.8114 3.80886C10.7843 3.94481 10.7982 4.08573 10.8512 4.21379C10.9043 4.34185 10.9941 4.45131 11.1094 4.52832C11.2246 4.60533 11.3601 4.64643 11.4987 4.64643C11.6846 4.64643 11.8629 4.57259 11.9943 4.44116C12.1258 4.30973 12.1996 4.13146 12.1996 3.94559ZM8.14869 14.2551L14.7787 7.61102C14.8492 7.54567 14.9054 7.46653 14.944 7.37852C14.9826 7.29051 15.0027 7.1955 15.003 7.0994V2.89432C15.0035 2.80208 14.9858 2.71065 14.951 2.62526C14.9161 2.53987 14.8647 2.4622 14.7997 2.39671L13.0546 0.644595C12.9891 0.57964 12.9115 0.52825 12.8261 0.493372C12.7407 0.458495 12.6493 0.440816 12.557 0.441349L8.35194 0.441349C8.16638 0.443931 7.98864 0.516527 7.85434 0.644595L1.19628 7.29564C1.06822 7.42994 0.995621 7.60768 0.99304 7.79324C0.992507 7.88548 1.01018 7.97691 1.04506 8.0623C1.07994 8.14769 1.13133 8.22535 1.19628 8.29084L7.1605 14.2551C7.22598 14.32 7.30365 14.3714 7.38904 14.4063C7.47443 14.4412 7.56586 14.4588 7.6581 14.4583C7.84123 14.454 8.01616 14.3815 8.14869 14.2551ZM2.67507 7.79324L8.63228 1.84304L12.2697 1.84304L13.6013 3.17465V6.80504L7.65109 12.7622L2.67507 7.79324Z" fill="#78797A"/>
</svg>
