<svg width="14" height="17" viewBox="0 0 14 17" fill="none" xmlns="http://www.w3.org/2000/svg">
<path d="M8.20001 1.45474H2.60001C2.22871 1.45474 1.87261 1.60224 1.61006 1.86479C1.34751 2.12734 1.20001 2.48344 1.20001 2.85474V14.0547C1.20001 14.426 1.34751 14.7821 1.61006 15.0447C1.87261 15.3072 2.22871 15.4547 2.60001 15.4547H11C11.3713 15.4547 11.7274 15.3072 11.99 15.0447C12.2525 14.7821 12.4 14.426 12.4 14.0547V5.65474L8.20001 1.45474Z" stroke="#0746A6" stroke-width="1.4" stroke-linecap="round" stroke-linejoin="round"/>
<path d="M9.60006 11.9547H4.00006" stroke="#0746A6" stroke-width="1.4" stroke-linecap="round" stroke-linejoin="round"/>
<path d="M9.60006 9.15469H4.00006" stroke="#0746A6" stroke-width="1.4" stroke-linecap="round" stroke-linejoin="round"/>
<path d="M5.40006 6.35498H4.70006H4.00006" stroke="#0746A6" stroke-width="1.4" stroke-linecap="round" stroke-linejoin="round"/>
<path d="M8.20007 1.45474V5.65474H12.4001" stroke="#0746A6" stroke-width="1.4" stroke-linecap="round" stroke-linejoin="round"/>
</svg>
