<svg width="16" height="14" viewBox="0 0 16 14" fill="none" xmlns="http://www.w3.org/2000/svg">
<path d="M15.8056 5.34855C15.7373 5.26435 15.651 5.19653 15.553 5.15007C15.4551 5.1036 15.348 5.07968 15.2395 5.08004H13.7882V4.35435C13.7882 3.77696 13.5588 3.22321 13.1505 2.81493C12.7422 2.40665 12.1885 2.17728 11.6111 2.17728H7.05377L6.82155 1.45159C6.671 1.02578 6.39175 0.657329 6.02249 0.397284C5.65322 0.137238 5.21223 -0.00152653 4.76059 0.00021455H2.17713C1.59974 0.00021455 1.04599 0.229584 0.63771 0.637864C0.22943 1.04614 6.10352e-05 1.59989 6.10352e-05 2.17728V10.8856C6.10352e-05 11.463 0.22943 12.0167 0.63771 12.425C1.04599 12.8333 1.59974 13.0626 2.17713 13.0626H12.6271C13.1214 13.0612 13.6006 12.8916 13.9857 12.5816C14.3708 12.2717 14.639 11.8399 14.7461 11.3573L15.9652 5.96539C15.9873 5.8572 15.9844 5.7454 15.9567 5.63851C15.9291 5.53162 15.8774 5.43245 15.8056 5.34855ZM3.17133 11.0452C3.13446 11.2089 3.042 11.3548 2.90969 11.458C2.77738 11.5612 2.61339 11.6154 2.44564 11.6113H2.17713C1.98467 11.6113 1.80008 11.5348 1.66399 11.3987C1.5279 11.2626 1.45144 11.078 1.45144 10.8856V2.17728C1.45144 1.98482 1.5279 1.80024 1.66399 1.66414C1.80008 1.52805 1.98467 1.45159 2.17713 1.45159H4.76059C4.91884 1.44333 5.07544 1.4871 5.20648 1.57621C5.33751 1.66531 5.43578 1.79486 5.48628 1.94506L5.87815 3.1352C5.92472 3.27362 6.01197 3.39477 6.12849 3.48281C6.24502 3.57085 6.38539 3.62168 6.53127 3.62866H11.6111C11.8036 3.62866 11.9881 3.70512 12.1242 3.84121C12.2603 3.97731 12.3368 4.16189 12.3368 4.35435V5.08004H5.07989C4.91214 5.07594 4.74815 5.13011 4.61584 5.23331C4.48353 5.33651 4.39107 5.48238 4.3542 5.64608L3.17133 11.0452ZM13.331 11.0452C13.2941 11.2089 13.2017 11.3548 13.0693 11.458C12.937 11.5612 12.773 11.6154 12.6053 11.6113H4.5066C4.54408 11.5304 4.57091 11.445 4.58642 11.3573L5.66044 6.53142H14.3687L13.331 11.0452Z" fill="#78797A"/>
</svg>
