<svg width="15" height="16" viewBox="0 0 15 16" fill="none" xmlns="http://www.w3.org/2000/svg">
<path d="M13.6129 8.0436C13.492 7.90593 13.4253 7.72893 13.4253 7.54567C13.4253 7.36241 13.492 7.18541 13.6129 7.04773L14.5786 5.96132C14.685 5.84263 14.7511 5.69327 14.7674 5.53469C14.7836 5.37611 14.7493 5.21645 14.6692 5.07862L13.1603 2.46823C13.081 2.33056 12.9602 2.22143 12.8153 2.1564C12.6703 2.09138 12.5085 2.07377 12.353 2.10609L10.9346 2.39278C10.7542 2.43007 10.5663 2.40002 10.4064 2.30828C10.2466 2.21655 10.1259 2.06949 10.067 1.89485L9.6068 0.514204C9.55619 0.364354 9.45976 0.234201 9.33114 0.142141C9.20253 0.0500812 9.04824 0.000770328 8.89007 0.00117861H5.87228C5.70776 -0.00740856 5.54495 0.038091 5.40872 0.130728C5.27249 0.223365 5.17032 0.358047 5.11783 0.514204L4.69534 1.89485C4.63649 2.06949 4.51576 2.21655 4.35592 2.30828C4.19608 2.40002 4.0082 2.43007 3.82772 2.39278L2.37163 2.10609C2.22418 2.08525 2.07385 2.10852 1.9396 2.17297C1.80534 2.23741 1.69316 2.34014 1.61719 2.46823L0.108287 5.07862C0.0261733 5.21491 -0.0107479 5.37367 0.00280236 5.53221C0.0163526 5.69075 0.0796805 5.84095 0.183732 5.96132L1.14188 7.04773C1.26284 7.18541 1.32954 7.36241 1.32954 7.54567C1.32954 7.72893 1.26284 7.90593 1.14188 8.0436L0.183732 9.13001C0.0796805 9.25039 0.0163526 9.40059 0.00280236 9.55912C-0.0107479 9.71766 0.0261733 9.87642 0.108287 10.0127L1.61719 12.6231C1.69648 12.7608 1.8172 12.8699 1.96216 12.9349C2.10711 13 2.2689 13.0176 2.42445 12.9852L3.84281 12.6986C4.02329 12.6613 4.21117 12.6913 4.37101 12.7831C4.53085 12.8748 4.65158 13.0218 4.71043 13.1965L5.17064 14.5771C5.22313 14.7333 5.3253 14.868 5.46153 14.9606C5.59776 15.0532 5.76057 15.0987 5.92509 15.0902H8.94288C9.10105 15.0906 9.25534 15.0413 9.38396 14.9492C9.51257 14.8571 9.609 14.727 9.65961 14.5771L10.1198 13.1965C10.1787 13.0218 10.2994 12.8748 10.4592 12.7831C10.6191 12.6913 10.807 12.6613 10.9874 12.6986L12.4058 12.9852C12.5614 13.0176 12.7231 13 12.8681 12.9349C13.013 12.8699 13.1338 12.7608 13.2131 12.6231L14.722 10.0127C14.8021 9.87489 14.8365 9.71523 14.8202 9.55665C14.8039 9.39806 14.7378 9.24871 14.6314 9.13001L13.6129 8.0436ZM12.4888 9.05457L13.0924 9.73357L12.1267 11.4084L11.2364 11.2274C10.693 11.1163 10.1278 11.2086 9.64799 11.4868C9.16818 11.7649 8.80719 12.2095 8.63356 12.7363L8.34687 13.5813H6.41548L6.14388 12.7212C5.97025 12.1945 5.60926 11.7498 5.12945 11.4717C4.64964 11.1935 4.0844 11.1012 3.54103 11.2123L2.65078 11.3934L1.67 9.72602L2.27356 9.04702C2.64471 8.63206 2.8499 8.09486 2.8499 7.53812C2.8499 6.98139 2.64471 6.44419 2.27356 6.02922L1.67 5.35022L2.63569 3.69043L3.52594 3.8715C4.06931 3.98257 4.63455 3.89027 5.11436 3.61212C5.59417 3.33397 5.95516 2.88933 6.12879 2.3626L6.41548 1.51008H8.34687L8.63356 2.37015C8.80719 2.89687 9.16818 3.34151 9.64799 3.61967C10.1278 3.89782 10.693 3.99012 11.2364 3.87905L12.1267 3.69798L13.0924 5.37285L12.4888 6.05186C12.1218 6.46587 11.9192 6.99996 11.9192 7.55321C11.9192 8.10646 12.1218 8.64055 12.4888 9.05457ZM7.38118 4.52787C6.78431 4.52787 6.20085 4.70486 5.70458 5.03646C5.2083 5.36806 4.8215 5.83938 4.59309 6.39081C4.36469 6.94224 4.30492 7.54902 4.42137 8.13441C4.53781 8.7198 4.82522 9.25753 5.24727 9.67957C5.66932 10.1016 6.20704 10.389 6.79243 10.5055C7.37783 10.6219 7.9846 10.5622 8.53603 10.3337C9.08746 10.1053 9.55878 9.71854 9.89038 9.22226C10.222 8.72599 10.399 8.14253 10.399 7.54567C10.399 6.7453 10.081 5.97771 9.51508 5.41176C8.94913 4.84582 8.18154 4.52787 7.38118 4.52787ZM7.38118 9.05457C7.08274 9.05457 6.79101 8.96607 6.54288 8.80027C6.29474 8.63447 6.10134 8.39881 5.98713 8.1231C5.87293 7.84738 5.84305 7.54399 5.90127 7.2513C5.95949 6.9586 6.1032 6.68974 6.31422 6.47872C6.52525 6.26769 6.79411 6.12398 7.0868 6.06576C7.3795 6.00754 7.68289 6.03742 7.9586 6.15163C8.23432 6.26583 8.46998 6.45923 8.63578 6.70737C8.80158 6.95551 8.89007 7.24724 8.89007 7.54567C8.89007 7.94585 8.7311 8.32965 8.44813 8.61262C8.16515 8.89559 7.78136 9.05457 7.38118 9.05457Z" fill="#78797A"/>
</svg>
