<svg width="16" height="17" viewBox="0 0 16 17" fill="none" xmlns="http://www.w3.org/2000/svg">
<path d="M1.32922 12.6619C1.40733 12.8582 1.56022 13.0155 1.75427 13.099C1.94832 13.1826 2.16763 13.1857 2.36395 13.1076C2.56027 13.0295 2.71752 12.8766 2.80111 12.6826C2.8847 12.4885 2.88778 12.2692 2.80967 12.0729L1.91822 9.82833L7.20327 8.6583V12.439C7.20327 12.6501 7.28713 12.8526 7.43639 13.0018C7.58566 13.1511 7.78811 13.235 7.99921 13.235C8.2103 13.235 8.41276 13.1511 8.56202 13.0018C8.71129 12.8526 8.79515 12.6501 8.79515 12.439V8.6583L14.0802 9.82833L13.1887 12.0729C13.15 12.1701 13.1307 12.274 13.1322 12.3786C13.1336 12.4832 13.1556 12.5866 13.197 12.6827C13.2384 12.7788 13.2984 12.8658 13.3734 12.9387C13.4485 13.0116 13.5372 13.069 13.6345 13.1076C13.7282 13.1447 13.8282 13.1636 13.929 13.1633C14.0884 13.1635 14.2442 13.1158 14.3761 13.0264C14.5081 12.937 14.6102 12.81 14.6692 12.6619L15.9029 9.54975C15.9452 9.44211 15.9636 9.32654 15.9567 9.21107C15.9499 9.0956 15.9179 8.98302 15.8631 8.88116C15.8099 8.77968 15.7354 8.69087 15.6448 8.62081C15.5541 8.55076 15.4494 8.5011 15.3378 8.47523L12.7749 7.91012V4.47961C12.7749 4.26852 12.691 4.06606 12.5417 3.9168C12.3925 3.76753 12.19 3.68367 11.9789 3.68367H10.387V1.29585C10.387 1.08475 10.3032 0.882302 10.1539 0.733034C10.0046 0.583766 9.80219 0.499908 9.59109 0.499908H6.40733C6.19623 0.499908 5.99378 0.583766 5.84451 0.733034C5.69524 0.882302 5.61139 1.08475 5.61139 1.29585V3.68367H4.0195C3.80841 3.68367 3.60596 3.76753 3.45669 3.9168C3.30742 4.06606 3.22356 4.26852 3.22356 4.47961V7.91012L0.660634 8.45931C0.549015 8.48518 0.444295 8.53484 0.353631 8.60489C0.262968 8.67495 0.188499 8.76376 0.135313 8.86524C0.0804965 8.9671 0.048539 9.07968 0.041666 9.19515C0.034793 9.31062 0.0531696 9.42619 0.0955164 9.53384L1.32922 12.6619ZM7.20327 2.09179H8.79515V3.68367H7.20327V2.09179ZM4.81544 5.27555H11.183V7.55194L8.17432 6.86743H7.8241L4.81544 7.55194V5.27555ZM14.9318 14.2538C14.6526 14.3393 14.3852 14.4597 14.1359 14.6119C13.8823 14.7602 13.5939 14.8384 13.3002 14.8384C13.0064 14.8384 12.718 14.7602 12.4644 14.6119C11.9131 14.3009 11.2907 14.1374 10.6576 14.1374C10.0246 14.1374 9.40224 14.3009 8.85086 14.6119C8.59383 14.7585 8.30305 14.8356 8.00717 14.8356C7.71129 14.8356 7.42051 14.7585 7.16347 14.6119C6.6116 14.3024 5.98945 14.1398 5.35668 14.1398C4.72392 14.1398 4.10177 14.3024 3.5499 14.6119C3.29634 14.7602 3.00789 14.8384 2.71416 14.8384C2.42043 14.8384 2.13198 14.7602 1.87842 14.6119C1.62916 14.4597 1.36175 14.3393 1.08248 14.2538C0.976577 14.2161 0.863897 14.2013 0.75186 14.2103C0.639822 14.2194 0.530969 14.252 0.432466 14.3062C0.333963 14.3603 0.248043 14.4347 0.180363 14.5245C0.112683 14.6142 0.064778 14.7172 0.0398006 14.8268C-0.0196198 15.0284 0.00310195 15.2453 0.103008 15.4302C0.202914 15.6151 0.371896 15.753 0.573081 15.8138C0.733354 15.8572 0.886262 15.9243 1.02677 16.0128C1.50967 16.2962 2.05876 16.4472 2.61865 16.4506C3.20016 16.4507 3.77135 16.2969 4.27421 16.0048C4.58619 15.8327 4.9367 15.7425 5.29301 15.7425C5.64932 15.7425 5.99982 15.8327 6.31181 16.0048C6.81111 16.2903 7.3763 16.4405 7.95145 16.4405C8.52661 16.4405 9.09179 16.2903 9.59109 16.0048C9.90308 15.8327 10.2536 15.7425 10.6099 15.7425C10.9662 15.7425 11.3167 15.8327 11.6287 16.0048C12.122 16.2993 12.6859 16.4547 13.2604 16.4547C13.8349 16.4547 14.3987 16.2993 14.8921 16.0048C15.0326 15.9163 15.1855 15.8493 15.3457 15.8058C15.4517 15.7844 15.5521 15.7416 15.641 15.6801C15.7298 15.6186 15.8052 15.5397 15.8626 15.4481C15.9199 15.3564 15.958 15.2541 15.9745 15.1473C15.991 15.0405 15.9856 14.9315 15.9586 14.8268C15.9333 14.7191 15.8858 14.6179 15.8192 14.5295C15.7526 14.4412 15.6683 14.3677 15.5717 14.3138C15.475 14.2599 15.3682 14.2267 15.2581 14.2163C15.1479 14.206 15.0368 14.2187 14.9318 14.2538Z" fill="#78797A"/>
</svg>
