<svg width="25" height="22" viewBox="0 0 25 22" fill="none" xmlns="http://www.w3.org/2000/svg">
<path d="M2.89806 16.6096C3.01381 16.8713 3.24041 17.081 3.52799 17.1925C3.81558 17.3039 4.14059 17.308 4.43155 17.2039C4.7225 17.0997 4.95555 16.8959 5.07943 16.6372C5.20331 16.3784 5.20788 16.086 5.09213 15.8243L3.77097 12.8315L11.6036 11.2715V16.3124C11.6036 16.5939 11.7278 16.8638 11.9491 17.0629C12.1703 17.2619 12.4703 17.3737 12.7832 17.3737C13.096 17.3737 13.396 17.2619 13.6173 17.0629C13.8385 16.8638 13.9628 16.5939 13.9628 16.3124V11.2715L21.7953 12.8315L20.4742 15.8243C20.4167 15.9539 20.3882 16.0924 20.3903 16.2319C20.3925 16.3714 20.4251 16.5092 20.4865 16.6373C20.5478 16.7655 20.6367 16.8815 20.7479 16.9787C20.8592 17.0759 20.9906 17.1524 21.1348 17.2039C21.2737 17.2533 21.4218 17.2785 21.5712 17.2782C21.8075 17.2784 22.0384 17.2148 22.2339 17.0955C22.4295 16.9763 22.5808 16.807 22.6683 16.6096L24.4966 12.4601C24.5594 12.3166 24.5866 12.1625 24.5765 12.0085C24.5663 11.8545 24.5189 11.7044 24.4377 11.5686C24.3588 11.4333 24.2485 11.3149 24.1141 11.2215C23.9797 11.1281 23.8246 11.0619 23.6591 11.0274L19.8608 10.2739V5.69989C19.8608 5.41843 19.7365 5.14849 19.5153 4.94947C19.2941 4.75044 18.994 4.63863 18.6812 4.63863H16.322V1.45487C16.322 1.17341 16.1977 0.903474 15.9765 0.70445C15.7553 0.505426 15.4552 0.393616 15.1424 0.393616H10.4239C10.1111 0.393616 9.81106 0.505426 9.58984 0.70445C9.36862 0.903474 9.24434 1.17341 9.24434 1.45487V4.63863H6.88513C6.57228 4.63863 6.27224 4.75044 6.05102 4.94947C5.8298 5.14849 5.70552 5.41843 5.70552 5.69989V10.2739L1.90719 11.0062C1.74176 11.0406 1.58657 11.1069 1.4522 11.2003C1.31784 11.2937 1.20747 11.4121 1.12865 11.5474C1.04741 11.6832 1.00005 11.8333 0.98986 11.9873C0.979674 12.1412 1.00691 12.2953 1.06967 12.4389L2.89806 16.6096ZM11.6036 2.51612H13.9628V4.63863H11.6036V2.51612ZM8.06473 6.76114H17.5016V9.79633L13.0427 8.88365H12.5236L8.06473 9.79633V6.76114ZM23.0575 18.7321C22.6436 18.8462 22.2473 19.0066 21.8779 19.2097C21.5021 19.4074 21.0747 19.5116 20.6393 19.5116C20.204 19.5116 19.7765 19.4074 19.4008 19.2097C18.5836 18.7949 17.6613 18.577 16.723 18.577C15.7848 18.577 14.8625 18.7949 14.0453 19.2097C13.6644 19.4051 13.2335 19.5078 12.795 19.5078C12.3564 19.5078 11.9255 19.4051 11.5446 19.2097C10.7267 18.7969 9.80464 18.5801 8.86687 18.5801C7.92909 18.5801 7.00705 18.7969 6.18916 19.2097C5.81338 19.4074 5.38589 19.5116 4.95057 19.5116C4.51525 19.5116 4.08777 19.4074 3.71199 19.2097C3.34257 19.0066 2.94627 18.8462 2.53238 18.7321C2.37542 18.6819 2.20843 18.6622 2.04239 18.6742C1.87634 18.6862 1.71502 18.7298 1.56904 18.802C1.42305 18.8742 1.29572 18.9734 1.19541 19.093C1.09511 19.2127 1.02411 19.3501 0.987096 19.4962C0.899033 19.765 0.932707 20.0542 1.08077 20.3007C1.22884 20.5473 1.47927 20.7311 1.77743 20.8121C2.01496 20.87 2.24158 20.9595 2.44981 21.0775C3.16548 21.4553 3.97925 21.6566 4.80902 21.6612C5.67084 21.6613 6.51736 21.4563 7.2626 21.0668C7.72498 20.8374 8.24444 20.717 8.7725 20.717C9.30056 20.717 9.82002 20.8374 10.2824 21.0668C11.0224 21.4475 11.86 21.6478 12.7124 21.6478C13.5648 21.6478 14.4024 21.4475 15.1424 21.0668C15.6047 20.8374 16.1242 20.717 16.6523 20.717C17.1803 20.717 17.6998 20.8374 18.1622 21.0668C18.8933 21.4594 19.7289 21.6667 20.5804 21.6667C21.4318 21.6667 22.2674 21.4594 22.9985 21.0668C23.2068 20.9489 23.4334 20.8594 23.6709 20.8015C23.8279 20.773 23.9768 20.7159 24.1085 20.6339C24.2401 20.5519 24.3519 20.4466 24.4369 20.3245C24.5219 20.2023 24.5783 20.0659 24.6028 19.9235C24.6273 19.7811 24.6192 19.6357 24.5792 19.4962C24.5417 19.3526 24.4714 19.2176 24.3726 19.0998C24.2739 18.982 24.1489 18.884 24.0058 18.8121C23.8626 18.7402 23.7043 18.696 23.541 18.6822C23.3778 18.6684 23.2131 18.6854 23.0575 18.7321Z" fill="#81868C"/>
</svg>
