<svg width="16" height="17" viewBox="0 0 16 17" fill="none" xmlns="http://www.w3.org/2000/svg">
<path d="M13.061 8.04785C12.916 8.04785 12.7769 7.99024 12.6744 7.8877C12.5718 7.78516 12.5142 7.64608 12.5142 7.50106V5.95695C12.5142 3.76982 10.4933 2.02012 8.00872 2.02012C5.52414 2.02012 3.50323 3.79169 3.50323 5.95695V7.50106C3.50323 7.64608 3.44563 7.78516 3.34308 7.8877C3.24054 7.99024 3.10147 8.04785 2.95645 8.04785C2.81143 8.04785 2.67236 7.99024 2.56982 7.8877C2.46728 7.78516 2.40967 7.64608 2.40967 7.50106V5.95695C2.40967 3.17492 4.92487 0.909058 8.00872 0.909058C11.0926 0.909058 13.6078 3.17492 13.6078 5.95695V7.50106C13.6084 7.57303 13.5946 7.64439 13.5673 7.711C13.5401 7.7776 13.4998 7.83811 13.4489 7.889C13.398 7.93989 13.3375 7.98014 13.2709 8.00741C13.2043 8.03469 13.133 8.04843 13.061 8.04785Z" fill="#78797A" stroke="#78797A" stroke-width="0.4"/>
<path d="M11.5825 13.192C11.4375 13.192 11.2984 13.1344 11.1959 13.0319C11.0934 12.9293 11.0357 12.7903 11.0357 12.6452V7.45299C11.0403 7.31103 11.0999 7.17641 11.202 7.07762C11.304 6.97883 11.4405 6.92363 11.5825 6.92371C13.4678 6.92371 15.0032 8.33659 15.0032 10.0688C15.0032 11.801 13.4678 13.192 11.5825 13.192ZM12.1293 8.05664V12.0416C12.608 11.9623 13.0452 11.7217 13.3683 11.3596C13.6913 10.9976 13.8808 10.5359 13.9053 10.0513C13.8818 9.56592 13.6928 9.10322 13.3696 8.74028C13.0465 8.37734 12.6087 8.13606 12.1293 8.05664ZM4.4175 13.192C2.53219 13.192 0.996826 11.7835 0.996826 10.0513C0.996826 8.31909 2.53219 6.92371 4.4175 6.92371C4.56251 6.92371 4.70159 6.98131 4.80413 7.08385C4.90667 7.1864 4.96428 7.32547 4.96428 7.47049V12.6452C4.96428 12.7903 4.90667 12.9293 4.80413 13.0319C4.70159 13.1344 4.56251 13.192 4.4175 13.192ZM3.87071 8.05664C3.3913 8.13606 2.95356 8.37734 2.63042 8.74028C2.30727 9.10322 2.11823 9.56592 2.09476 10.0513C2.1192 10.5359 2.30868 10.9976 2.63174 11.3596C2.9548 11.7217 3.392 11.9623 3.87071 12.0416V8.05664Z" fill="#78797A" stroke="#78797A" stroke-width="0.4"/>
<path d="M11.4031 14.9724H9.59219C9.44718 14.9724 9.3081 14.9148 9.20556 14.8122C9.10302 14.7097 9.04541 14.5706 9.04541 14.4256C9.04541 14.2806 9.10302 14.1415 9.20556 14.0389C9.3081 13.9364 9.44718 13.8788 9.59219 13.8788H11.4031C11.6862 13.8788 11.9577 13.7663 12.1578 13.5662C12.358 13.366 12.4705 13.0945 12.4705 12.8115V12.5709C12.4705 12.4259 12.5281 12.2868 12.6306 12.1843C12.7331 12.0817 12.8722 12.0241 13.0172 12.0241C13.1623 12.0241 13.3013 12.0817 13.4039 12.1843C13.5064 12.2868 13.564 12.4259 13.564 12.5709V12.8115C13.564 13.3846 13.3364 13.9342 12.9311 14.3395C12.5259 14.7447 11.9762 14.9724 11.4031 14.9724Z" fill="#78797A" stroke="#78797A" stroke-width="0.4"/>
<path d="M8.65621 16.0002H7.57577C7.17901 16.0002 6.79849 15.8425 6.51794 15.562C6.23739 15.2814 6.07977 14.9009 6.07977 14.5042V14.4429C6.08093 14.0469 6.23906 13.6675 6.51948 13.3879C6.79991 13.1083 7.17976 12.9513 7.57577 12.9513H8.65621C9.05181 12.9513 9.43121 13.1084 9.71095 13.3882C9.99068 13.6679 10.1478 14.0473 10.1478 14.4429V14.5042C10.1478 14.9002 9.99082 15.28 9.71121 15.5604C9.43161 15.8409 9.05222 15.999 8.65621 16.0002ZM7.58452 14.0449C7.47854 14.0449 7.37684 14.0867 7.30149 14.1612C7.22615 14.2357 7.18324 14.3369 7.18209 14.4429V14.5042C7.18209 14.6109 7.22449 14.7132 7.29996 14.7887C7.37543 14.8642 7.47779 14.9066 7.58452 14.9066H8.65621C8.76218 14.9054 8.86342 14.8625 8.93795 14.7872C9.01248 14.7118 9.05428 14.6101 9.05427 14.5042V14.4429C9.05427 14.3373 9.01233 14.2361 8.93768 14.1614C8.86303 14.0868 8.76178 14.0449 8.65621 14.0449H7.58452Z" fill="#78797A" stroke="#78797A" stroke-width="0.4"/>
</svg>
