<svg width="14" height="13" viewBox="0 0 14 13" fill="none" xmlns="http://www.w3.org/2000/svg">
<path d="M11.9001 2.95472H11.2001V2.25471C11.2001 1.69775 10.9788 1.1636 10.585 0.769774C10.1912 0.375945 9.65703 0.154694 9.10007 0.154694H2.10002C1.54306 0.154694 1.00891 0.375945 0.615081 0.769774C0.221251 1.1636 0 1.69775 0 2.25471V10.6548C0 11.2117 0.221251 11.7459 0.615081 12.1397C1.00891 12.5335 1.54306 12.7548 2.10002 12.7548H11.9001C12.4571 12.7548 12.9912 12.5335 13.385 12.1397C13.7789 11.7459 14.0001 11.2117 14.0001 10.6548V5.05473C14.0001 4.49777 13.7789 3.96363 13.385 3.5698C12.9912 3.17597 12.4571 2.95472 11.9001 2.95472ZM2.10002 1.5547H9.10007C9.28572 1.5547 9.46377 1.62845 9.59505 1.75973C9.72633 1.89101 9.80008 2.06906 9.80008 2.25471V2.95472H2.10002C1.91436 2.95472 1.73631 2.88096 1.60504 2.74969C1.47376 2.61841 1.40001 2.44036 1.40001 2.25471C1.40001 2.06906 1.47376 1.89101 1.60504 1.75973C1.73631 1.62845 1.91436 1.5547 2.10002 1.5547ZM12.6001 8.55476H11.9001C11.7144 8.55476 11.5364 8.48101 11.4051 8.34973C11.2738 8.21846 11.2001 8.04041 11.2001 7.85475C11.2001 7.6691 11.2738 7.49105 11.4051 7.35977C11.5364 7.2285 11.7144 7.15475 11.9001 7.15475H12.6001V8.55476ZM12.6001 5.75474H11.9001C11.3431 5.75474 10.809 5.97599 10.4152 6.36982C10.0213 6.76365 9.80008 7.29779 9.80008 7.85475C9.80008 8.41171 10.0213 8.94586 10.4152 9.33969C10.809 9.73352 11.3431 9.95477 11.9001 9.95477H12.6001V10.6548C12.6001 10.8404 12.5263 11.0185 12.3951 11.1498C12.2638 11.281 12.0857 11.3548 11.9001 11.3548H2.10002C1.91436 11.3548 1.73631 11.281 1.60504 11.1498C1.47376 11.0185 1.40001 10.8404 1.40001 10.6548V4.23572C1.6249 4.31484 1.86162 4.35508 2.10002 4.35473H11.9001C12.0857 4.35473 12.2638 4.42848 12.3951 4.55975C12.5263 4.69103 12.6001 4.86908 12.6001 5.05473V5.75474Z" fill="#78797A"/>
</svg>
